M48
INCH,TZ
T1C0.0295
T2C0.0315
T3C0.0394
T4C0.0413
T5C0.0433
T6C0.1250
%
G90
G05
T1
X53584Y-31976
X53584Y-32476
X53584Y-32976
T2
X41441Y-33221
X41916Y-34676
X41916Y-36644
X42441Y-33221
X44569Y-33320
X44569Y-36273
X46111Y-35787
X47095Y-35787
X49296Y-33472
X49296Y-36425
X52785Y-36438
X52785Y-37438
T3
X43509Y-31516
X49509Y-31516
X54305Y-36516
X54305Y-37516
X54305Y-38516
X55790Y-31226
X55790Y-32226
X55790Y-34406
X55790Y-35406
X55790Y-37523
X55790Y-38523
T4
X50863Y-31275
X50863Y-36827
T5
X44410Y-38085
X48410Y-38085
T6
X41250Y-31250
X41250Y-38750
X58750Y-31250
X58750Y-38750
T0
M30
