%TF.GenerationSoftware,KiCad,Pcbnew,(6.0.0)*%
%TF.CreationDate,2022-02-19T14:37:59-08:00*%
%TF.ProjectId,RTCMemoryVoltageSourceAndBattery,5254434d-656d-46f7-9279-566f6c746167,rev?*%
%TF.SameCoordinates,Original*%
%TF.FileFunction,Soldermask,Top*%
%TF.FilePolarity,Negative*%
%FSLAX46Y46*%
G04 Gerber Fmt 4.6, Leading zero omitted, Abs format (unit mm)*
G04 Created by KiCad (PCBNEW (6.0.0)) date 2022-02-19 14:37:59*
%MOMM*%
%LPD*%
G01*
G04 APERTURE LIST*
%ADD10R,1.700000X1.700000*%
%ADD11O,1.700000X1.700000*%
%ADD12R,1.250000X0.600000*%
%ADD13R,1.500000X1.050000*%
%ADD14O,1.500000X1.050000*%
%ADD15R,2.200000X2.200000*%
%ADD16O,2.200000X2.200000*%
%ADD17R,1.800000X1.800000*%
%ADD18O,1.800000X1.800000*%
%ADD19R,1.600000X1.600000*%
%ADD20C,1.600000*%
%ADD21R,1.528000X0.650000*%
%ADD22O,1.600000X1.600000*%
%ADD23C,2.000000*%
%ADD24O,2.000000X2.000000*%
%ADD25R,1.575000X1.575000*%
%ADD26C,1.575000*%
G04 APERTURE END LIST*
D10*
%TO.C,J3*%
X141706400Y-81854500D03*
D11*
X141706400Y-79314500D03*
%TD*%
D12*
%TO.C,IC2*%
X137809100Y-88546600D03*
X137809100Y-86646600D03*
X135709100Y-87596600D03*
%TD*%
D10*
%TO.C,J1*%
X141706400Y-97848800D03*
D11*
X141706400Y-95308800D03*
%TD*%
D13*
%TO.C,Q2*%
X136104200Y-83760100D03*
D14*
X136104200Y-82490100D03*
X136104200Y-81220100D03*
%TD*%
D15*
%TO.C,D2*%
X122961900Y-96734700D03*
D16*
X112801900Y-96734700D03*
%TD*%
D17*
%TO.C,Q1*%
X137934200Y-97831900D03*
D18*
X137934200Y-95291900D03*
X137934200Y-92751900D03*
%TD*%
D19*
%TO.C,C4*%
X106466300Y-88076400D03*
D20*
X106466300Y-93076400D03*
%TD*%
D21*
%TO.C,IC1*%
X116507100Y-83363200D03*
X116507100Y-84633200D03*
X116507100Y-85903200D03*
X116507100Y-87173200D03*
X121929100Y-87173200D03*
X121929100Y-85903200D03*
X121929100Y-84633200D03*
X121929100Y-83363200D03*
%TD*%
D20*
%TO.C,R1*%
X134075000Y-92552000D03*
D22*
X134075000Y-95092000D03*
%TD*%
D20*
%TO.C,R2*%
X105259100Y-84380500D03*
D22*
X107799100Y-84380500D03*
%TD*%
D19*
%TO.C,C3*%
X119621500Y-90900100D03*
D20*
X117121500Y-90900100D03*
%TD*%
D10*
%TO.C,J2*%
X141706400Y-89931100D03*
D11*
X141706400Y-87391100D03*
%TD*%
D23*
%TO.C,L1*%
X125753300Y-80050000D03*
D24*
X110513300Y-80050000D03*
%TD*%
D25*
%TO.C,D1*%
X129190900Y-79439400D03*
D26*
X129190900Y-93539400D03*
%TD*%
D20*
%TO.C,C2*%
X125211500Y-85019000D03*
X125211500Y-92519000D03*
%TD*%
%TO.C,C1*%
X113204800Y-84633000D03*
X113204800Y-92133000D03*
%TD*%
M02*
