%TF.GenerationSoftware,KiCad,Pcbnew,(6.0.0)*%
%TF.CreationDate,2022-02-20T12:24:34-08:00*%
%TF.ProjectId,RTCMemoryVoltageSourceAndBattery,5254434d-656d-46f7-9279-566f6c746167,rev?*%
%TF.SameCoordinates,Original*%
%TF.FileFunction,Copper,L2,Bot*%
%TF.FilePolarity,Positive*%
%FSLAX46Y46*%
G04 Gerber Fmt 4.6, Leading zero omitted, Abs format (unit mm)*
G04 Created by KiCad (PCBNEW (6.0.0)) date 2022-02-20 12:24:34*
%MOMM*%
%LPD*%
G01*
G04 APERTURE LIST*
%TA.AperFunction,ComponentPad*%
%ADD10R,1.700000X1.700000*%
%TD*%
%TA.AperFunction,ComponentPad*%
%ADD11O,1.700000X1.700000*%
%TD*%
%TA.AperFunction,ComponentPad*%
%ADD12R,1.500000X1.050000*%
%TD*%
%TA.AperFunction,ComponentPad*%
%ADD13O,1.500000X1.050000*%
%TD*%
%TA.AperFunction,ComponentPad*%
%ADD14R,2.200000X2.200000*%
%TD*%
%TA.AperFunction,ComponentPad*%
%ADD15O,2.200000X2.200000*%
%TD*%
%TA.AperFunction,ComponentPad*%
%ADD16R,1.800000X1.800000*%
%TD*%
%TA.AperFunction,ComponentPad*%
%ADD17O,1.800000X1.800000*%
%TD*%
%TA.AperFunction,ComponentPad*%
%ADD18R,1.600000X1.600000*%
%TD*%
%TA.AperFunction,ComponentPad*%
%ADD19C,1.600000*%
%TD*%
%TA.AperFunction,ComponentPad*%
%ADD20O,1.600000X1.600000*%
%TD*%
%TA.AperFunction,ComponentPad*%
%ADD21C,2.000000*%
%TD*%
%TA.AperFunction,ComponentPad*%
%ADD22O,2.000000X2.000000*%
%TD*%
%TA.AperFunction,ComponentPad*%
%ADD23R,1.575000X1.575000*%
%TD*%
%TA.AperFunction,ComponentPad*%
%ADD24C,1.575000*%
%TD*%
%TA.AperFunction,ViaPad*%
%ADD25C,3.873600*%
%TD*%
%TA.AperFunction,Conductor*%
%ADD26C,0.250000*%
%TD*%
%TA.AperFunction,Conductor*%
%ADD27C,0.508000*%
%TD*%
G04 APERTURE END LIST*
D10*
%TO.P,J3,1,Pin_1*%
%TO.N,Net-(D2-Pad1)*%
X141706400Y-81854500D03*
D11*
%TO.P,J3,2,Pin_2*%
%TO.N,GND*%
X141706400Y-79314500D03*
%TD*%
D10*
%TO.P,J1,1,Pin_1*%
%TO.N,Net-(Q1-Pad1)*%
X141706400Y-97848800D03*
D11*
%TO.P,J1,2,Pin_2*%
%TO.N,GND*%
X141706400Y-95308800D03*
%TD*%
D12*
%TO.P,Q2,1,D*%
%TO.N,Net-(J2-Pad1)*%
X136104200Y-83760100D03*
D13*
%TO.P,Q2,2,G*%
%TO.N,Net-(IC2-Pad2)*%
X136104200Y-82490100D03*
%TO.P,Q2,3,S*%
%TO.N,Net-(D2-Pad1)*%
X136104200Y-81220100D03*
%TD*%
D14*
%TO.P,D2,1,K*%
%TO.N,Net-(D2-Pad1)*%
X122961900Y-96734700D03*
D15*
%TO.P,D2,2,A*%
%TO.N,+3.3VP*%
X112801900Y-96734700D03*
%TD*%
D16*
%TO.P,Q1,1,E*%
%TO.N,Net-(Q1-Pad1)*%
X137934200Y-97831900D03*
D17*
%TO.P,Q1,2,C*%
%TO.N,+VDC*%
X137934200Y-95291900D03*
%TO.P,Q1,3,B*%
%TO.N,Net-(Q1-Pad3)*%
X137934200Y-92751900D03*
%TD*%
D18*
%TO.P,C4,1*%
%TO.N,+3.3VP*%
X106466300Y-88076400D03*
D19*
%TO.P,C4,2*%
%TO.N,GND*%
X106466300Y-93076400D03*
%TD*%
%TO.P,R1,1*%
%TO.N,Net-(Q1-Pad3)*%
X134075000Y-92552000D03*
D20*
%TO.P,R1,2*%
%TO.N,GND*%
X134075000Y-95092000D03*
%TD*%
D19*
%TO.P,R2,1*%
%TO.N,+3.3VP*%
X105259100Y-84380500D03*
D20*
%TO.P,R2,2*%
%TO.N,Net-(IC1-Pad1)*%
X107799100Y-84380500D03*
%TD*%
D18*
%TO.P,C3,1*%
%TO.N,+VDC*%
X119621500Y-90900100D03*
D19*
%TO.P,C3,2*%
%TO.N,GND*%
X117121500Y-90900100D03*
%TD*%
D10*
%TO.P,J2,1,Pin_1*%
%TO.N,Net-(J2-Pad1)*%
X141706400Y-89931100D03*
D11*
%TO.P,J2,2,Pin_2*%
%TO.N,GND*%
X141706400Y-87391100D03*
%TD*%
D21*
%TO.P,L1,1,1*%
%TO.N,Net-(D1-Pad1)*%
X125753300Y-80050000D03*
D22*
%TO.P,L1,2,2*%
%TO.N,+3.3VP*%
X110513300Y-80050000D03*
%TD*%
D23*
%TO.P,D1,1*%
%TO.N,Net-(D1-Pad1)*%
X129190900Y-79439400D03*
D24*
%TO.P,D1,2*%
%TO.N,GND*%
X129190900Y-93539400D03*
%TD*%
D19*
%TO.P,C2,1*%
%TO.N,Net-(C2-Pad1)*%
X125211500Y-85019000D03*
%TO.P,C2,2*%
%TO.N,GND*%
X125211500Y-92519000D03*
%TD*%
%TO.P,C1,1*%
%TO.N,Net-(C1-Pad1)*%
X113204800Y-84633000D03*
%TO.P,C1,2*%
%TO.N,GND*%
X113204800Y-92133000D03*
%TD*%
D25*
%TO.N,GND*%
X149225000Y-98425000D03*
X104775000Y-98425000D03*
X104775000Y-79375000D03*
X149225000Y-79375000D03*
%TD*%
D26*
%TO.N,GND*%
X113204800Y-92133000D02*
X115888600Y-92133000D01*
D27*
X104775000Y-98425000D02*
X105535411Y-99185411D01*
D26*
X148177389Y-78327389D02*
X105822611Y-78327389D01*
D27*
X103161903Y-96811903D02*
X103161903Y-82041594D01*
D26*
X149225000Y-79375000D02*
X148177389Y-78327389D01*
D27*
X104775000Y-98425000D02*
X106466300Y-96733700D01*
X149225000Y-98425000D02*
X149225000Y-79375000D01*
X105535411Y-99185411D02*
X148464589Y-99185411D01*
X104775000Y-98425000D02*
X103161903Y-96811903D01*
X103161903Y-82041594D02*
X104775000Y-80428497D01*
X104775000Y-80428497D02*
X104775000Y-79375000D01*
D26*
X115888600Y-92133000D02*
X117121500Y-90900100D01*
X104775000Y-79375000D02*
X104134589Y-80015411D01*
D27*
X106466300Y-96733700D02*
X106466300Y-93076400D01*
X148464589Y-99185411D02*
X149225000Y-98425000D01*
D26*
X105822611Y-78327389D02*
X104775000Y-79375000D01*
%TO.N,+3.3VP*%
X105259100Y-85743900D02*
X106466300Y-86951100D01*
X105259100Y-84380500D02*
X105259100Y-85743900D01*
X106466300Y-88076400D02*
X106466300Y-86951100D01*
%TO.N,Net-(D2-Pad1)*%
X135028900Y-91578321D02*
X136076166Y-92625587D01*
X136104200Y-81220100D02*
X135028900Y-81220100D01*
X136076166Y-94681134D02*
X134022600Y-96734700D01*
X134022600Y-96734700D02*
X122961900Y-96734700D01*
X136076166Y-92625587D02*
X136076166Y-94681134D01*
X135028900Y-81220100D02*
X135028900Y-91578321D01*
%TO.N,Net-(J2-Pad1)*%
X136104200Y-83760100D02*
X136104200Y-84610400D01*
X140249600Y-88755800D02*
X136104200Y-84610400D01*
X141706400Y-89931100D02*
X141706400Y-88755800D01*
X141706400Y-88755800D02*
X140249600Y-88755800D01*
%TD*%
%TA.AperFunction,Conductor*%
%TO.N,GND*%
G36*
X130682134Y-77755109D02*
G01*
X130728636Y-77808756D01*
X130740031Y-77861037D01*
X130743490Y-83319981D01*
X130750531Y-94431864D01*
X130730572Y-94499998D01*
X130676946Y-94546524D01*
X130624749Y-94557944D01*
X130301092Y-94558503D01*
X130232936Y-94538618D01*
X130186351Y-94485043D01*
X130176126Y-94414787D01*
X130197661Y-94360233D01*
X130313967Y-94194129D01*
X130319445Y-94184643D01*
X130410599Y-93989162D01*
X130414345Y-93978870D01*
X130470168Y-93770536D01*
X130472071Y-93759741D01*
X130490870Y-93544875D01*
X130490870Y-93533925D01*
X130472071Y-93319059D01*
X130470168Y-93308264D01*
X130414345Y-93099930D01*
X130410599Y-93089638D01*
X130319446Y-92894161D01*
X130313967Y-92884671D01*
X130279415Y-92835324D01*
X130268939Y-92826950D01*
X130255492Y-92834018D01*
X129279995Y-93809515D01*
X129217683Y-93843541D01*
X129146868Y-93838476D01*
X129101805Y-93809515D01*
X128125587Y-92833297D01*
X128113813Y-92826867D01*
X128101798Y-92836163D01*
X128067833Y-92884671D01*
X128062354Y-92894161D01*
X127971201Y-93089638D01*
X127967455Y-93099930D01*
X127911632Y-93308264D01*
X127909729Y-93319059D01*
X127890930Y-93533925D01*
X127890930Y-93544875D01*
X127909729Y-93759741D01*
X127911632Y-93770536D01*
X127967455Y-93978870D01*
X127971201Y-93989162D01*
X128062355Y-94184643D01*
X128067833Y-94194129D01*
X128186822Y-94364065D01*
X128209510Y-94431339D01*
X128192225Y-94500199D01*
X128140455Y-94548783D01*
X128083827Y-94562335D01*
X119194257Y-94577695D01*
X112363443Y-94589498D01*
X112295288Y-94569613D01*
X112248702Y-94516038D01*
X112237227Y-94464167D01*
X112232667Y-93605062D01*
X124489993Y-93605062D01*
X124499289Y-93617077D01*
X124550494Y-93652931D01*
X124559989Y-93658414D01*
X124757447Y-93750490D01*
X124767739Y-93754236D01*
X124978188Y-93810625D01*
X124988981Y-93812528D01*
X125206025Y-93831517D01*
X125216975Y-93831517D01*
X125434019Y-93812528D01*
X125444812Y-93810625D01*
X125655261Y-93754236D01*
X125665553Y-93750490D01*
X125863011Y-93658414D01*
X125872506Y-93652931D01*
X125924548Y-93616491D01*
X125932924Y-93606012D01*
X125925856Y-93592566D01*
X125224312Y-92891022D01*
X125210368Y-92883408D01*
X125208535Y-92883539D01*
X125201920Y-92887790D01*
X124496423Y-93593287D01*
X124489993Y-93605062D01*
X112232667Y-93605062D01*
X112230998Y-93290621D01*
X112250638Y-93222395D01*
X112304046Y-93175618D01*
X112374265Y-93165141D01*
X112429267Y-93186739D01*
X112543793Y-93266931D01*
X112553289Y-93272414D01*
X112750747Y-93364490D01*
X112761039Y-93368236D01*
X112971488Y-93424625D01*
X112982281Y-93426528D01*
X113199325Y-93445517D01*
X113210275Y-93445517D01*
X113427319Y-93426528D01*
X113438112Y-93424625D01*
X113648561Y-93368236D01*
X113658853Y-93364490D01*
X113856311Y-93272414D01*
X113865806Y-93266931D01*
X113917848Y-93230491D01*
X113926224Y-93220012D01*
X113919156Y-93206566D01*
X112934685Y-92222095D01*
X112900659Y-92159783D01*
X112902494Y-92134132D01*
X113569208Y-92134132D01*
X113569339Y-92135965D01*
X113573590Y-92142580D01*
X114279087Y-92848077D01*
X114290862Y-92854507D01*
X114302877Y-92845211D01*
X114338731Y-92794006D01*
X114344214Y-92784511D01*
X114436290Y-92587053D01*
X114440036Y-92576761D01*
X114454046Y-92524475D01*
X123898983Y-92524475D01*
X123917972Y-92741519D01*
X123919875Y-92752312D01*
X123976264Y-92962761D01*
X123980010Y-92973053D01*
X124072086Y-93170511D01*
X124077569Y-93180006D01*
X124114009Y-93232048D01*
X124124488Y-93240424D01*
X124137934Y-93233356D01*
X124839478Y-92531812D01*
X124845856Y-92520132D01*
X125575908Y-92520132D01*
X125576039Y-92521965D01*
X125580290Y-92528580D01*
X126285787Y-93234077D01*
X126297562Y-93240507D01*
X126309577Y-93231211D01*
X126345431Y-93180006D01*
X126350914Y-93170511D01*
X126442990Y-92973053D01*
X126446736Y-92962761D01*
X126503125Y-92752312D01*
X126505028Y-92741519D01*
X126524017Y-92524475D01*
X126524017Y-92513525D01*
X126519453Y-92461361D01*
X128478450Y-92461361D01*
X128485518Y-92474808D01*
X129178088Y-93167378D01*
X129192032Y-93174992D01*
X129193865Y-93174861D01*
X129200480Y-93170610D01*
X129897003Y-92474087D01*
X129903433Y-92462313D01*
X129894136Y-92450297D01*
X129845630Y-92416333D01*
X129836144Y-92410855D01*
X129640662Y-92319701D01*
X129630370Y-92315955D01*
X129422036Y-92260132D01*
X129411241Y-92258229D01*
X129196375Y-92239430D01*
X129185425Y-92239430D01*
X128970559Y-92258229D01*
X128959764Y-92260132D01*
X128751430Y-92315955D01*
X128741138Y-92319701D01*
X128545661Y-92410854D01*
X128536171Y-92416333D01*
X128486824Y-92450885D01*
X128478450Y-92461361D01*
X126519453Y-92461361D01*
X126505028Y-92296481D01*
X126503125Y-92285688D01*
X126446736Y-92075239D01*
X126442990Y-92064947D01*
X126350914Y-91867489D01*
X126345431Y-91857994D01*
X126308991Y-91805952D01*
X126298512Y-91797576D01*
X126285066Y-91804644D01*
X125583522Y-92506188D01*
X125575908Y-92520132D01*
X124845856Y-92520132D01*
X124847092Y-92517868D01*
X124846961Y-92516035D01*
X124842710Y-92509420D01*
X124137213Y-91803923D01*
X124125438Y-91797493D01*
X124113423Y-91806789D01*
X124077569Y-91857994D01*
X124072086Y-91867489D01*
X123980010Y-92064947D01*
X123976264Y-92075239D01*
X123919875Y-92285688D01*
X123917972Y-92296481D01*
X123898983Y-92513525D01*
X123898983Y-92524475D01*
X114454046Y-92524475D01*
X114496425Y-92366312D01*
X114498328Y-92355519D01*
X114517317Y-92138475D01*
X114517317Y-92127525D01*
X114504949Y-91986162D01*
X116399993Y-91986162D01*
X116409289Y-91998177D01*
X116460494Y-92034031D01*
X116469989Y-92039514D01*
X116667447Y-92131590D01*
X116677739Y-92135336D01*
X116888188Y-92191725D01*
X116898981Y-92193628D01*
X117116025Y-92212617D01*
X117126975Y-92212617D01*
X117344019Y-92193628D01*
X117354812Y-92191725D01*
X117565261Y-92135336D01*
X117575553Y-92131590D01*
X117773011Y-92039514D01*
X117782506Y-92034031D01*
X117834548Y-91997591D01*
X117842924Y-91987112D01*
X117835856Y-91973666D01*
X117134312Y-91272122D01*
X117120368Y-91264508D01*
X117118535Y-91264639D01*
X117111920Y-91268890D01*
X116406423Y-91974387D01*
X116399993Y-91986162D01*
X114504949Y-91986162D01*
X114498328Y-91910481D01*
X114496425Y-91899688D01*
X114440036Y-91689239D01*
X114436290Y-91678947D01*
X114344214Y-91481489D01*
X114338731Y-91471994D01*
X114302291Y-91419952D01*
X114291812Y-91411576D01*
X114278366Y-91418644D01*
X113576822Y-92120188D01*
X113569208Y-92134132D01*
X112902494Y-92134132D01*
X112905724Y-92088968D01*
X112934685Y-92043905D01*
X113919877Y-91058713D01*
X113926307Y-91046938D01*
X113917011Y-91034923D01*
X113865806Y-90999069D01*
X113856311Y-90993586D01*
X113667570Y-90905575D01*
X115808983Y-90905575D01*
X115827972Y-91122619D01*
X115829875Y-91133412D01*
X115886264Y-91343861D01*
X115890010Y-91354153D01*
X115982086Y-91551611D01*
X115987569Y-91561106D01*
X116024009Y-91613148D01*
X116034488Y-91621524D01*
X116047934Y-91614456D01*
X116749478Y-90912912D01*
X116755856Y-90901232D01*
X117485908Y-90901232D01*
X117486039Y-90903065D01*
X117490290Y-90909680D01*
X118195787Y-91615177D01*
X118237529Y-91637971D01*
X118247529Y-91640147D01*
X118297727Y-91690353D01*
X118312951Y-91743914D01*
X118313000Y-91744817D01*
X118313000Y-91748234D01*
X118319755Y-91810416D01*
X118370885Y-91946805D01*
X118458239Y-92063361D01*
X118574795Y-92150715D01*
X118711184Y-92201845D01*
X118773366Y-92208600D01*
X120469634Y-92208600D01*
X120531816Y-92201845D01*
X120668205Y-92150715D01*
X120784761Y-92063361D01*
X120872115Y-91946805D01*
X120923245Y-91810416D01*
X120930000Y-91748234D01*
X120930000Y-91431988D01*
X124490076Y-91431988D01*
X124497144Y-91445434D01*
X125198688Y-92146978D01*
X125212632Y-92154592D01*
X125214465Y-92154461D01*
X125221080Y-92150210D01*
X125926577Y-91444713D01*
X125933007Y-91432938D01*
X125923711Y-91420923D01*
X125872506Y-91385069D01*
X125863011Y-91379586D01*
X125665553Y-91287510D01*
X125655261Y-91283764D01*
X125444812Y-91227375D01*
X125434019Y-91225472D01*
X125216975Y-91206483D01*
X125206025Y-91206483D01*
X124988981Y-91225472D01*
X124978188Y-91227375D01*
X124767739Y-91283764D01*
X124757447Y-91287510D01*
X124559989Y-91379586D01*
X124550494Y-91385069D01*
X124498452Y-91421509D01*
X124490076Y-91431988D01*
X120930000Y-91431988D01*
X120930000Y-90051966D01*
X120923245Y-89989784D01*
X120872115Y-89853395D01*
X120784761Y-89736839D01*
X120668205Y-89649485D01*
X120531816Y-89598355D01*
X120469634Y-89591600D01*
X118773366Y-89591600D01*
X118711184Y-89598355D01*
X118574795Y-89649485D01*
X118458239Y-89736839D01*
X118370885Y-89853395D01*
X118319755Y-89989784D01*
X118313000Y-90051966D01*
X118313000Y-90055285D01*
X118289347Y-90122210D01*
X118243344Y-90157904D01*
X118244359Y-90159834D01*
X118233500Y-90165542D01*
X118233255Y-90165732D01*
X118233097Y-90165753D01*
X118195066Y-90185744D01*
X117493522Y-90887288D01*
X117485908Y-90901232D01*
X116755856Y-90901232D01*
X116757092Y-90898968D01*
X116756961Y-90897135D01*
X116752710Y-90890520D01*
X116047213Y-90185023D01*
X116035438Y-90178593D01*
X116023423Y-90187889D01*
X115987569Y-90239094D01*
X115982086Y-90248589D01*
X115890010Y-90446047D01*
X115886264Y-90456339D01*
X115829875Y-90666788D01*
X115827972Y-90677581D01*
X115808983Y-90894625D01*
X115808983Y-90905575D01*
X113667570Y-90905575D01*
X113658853Y-90901510D01*
X113648561Y-90897764D01*
X113438112Y-90841375D01*
X113427319Y-90839472D01*
X113210275Y-90820483D01*
X113199325Y-90820483D01*
X112982281Y-90839472D01*
X112971488Y-90841375D01*
X112761039Y-90897764D01*
X112750747Y-90901510D01*
X112553289Y-90993586D01*
X112543793Y-90999069D01*
X112417031Y-91087829D01*
X112349757Y-91110517D01*
X112280896Y-91093232D01*
X112232312Y-91041462D01*
X112218762Y-90985285D01*
X112212540Y-89813088D01*
X116400076Y-89813088D01*
X116407144Y-89826534D01*
X117108688Y-90528078D01*
X117122632Y-90535692D01*
X117124465Y-90535561D01*
X117131080Y-90531310D01*
X117836577Y-89825813D01*
X117843007Y-89814038D01*
X117833711Y-89802023D01*
X117782506Y-89766169D01*
X117773011Y-89760686D01*
X117575553Y-89668610D01*
X117565261Y-89664864D01*
X117354812Y-89608475D01*
X117344019Y-89606572D01*
X117126975Y-89587583D01*
X117116025Y-89587583D01*
X116898981Y-89606572D01*
X116888188Y-89608475D01*
X116677739Y-89664864D01*
X116667447Y-89668610D01*
X116469989Y-89760686D01*
X116460494Y-89766169D01*
X116408452Y-89802609D01*
X116400076Y-89813088D01*
X112212540Y-89813088D01*
X112191044Y-85763255D01*
X112210684Y-85695029D01*
X112264092Y-85648252D01*
X112334311Y-85637775D01*
X112389313Y-85659373D01*
X112548051Y-85770523D01*
X112553033Y-85772846D01*
X112553038Y-85772849D01*
X112737339Y-85858789D01*
X112755557Y-85867284D01*
X112760865Y-85868706D01*
X112760867Y-85868707D01*
X112971398Y-85925119D01*
X112971400Y-85925119D01*
X112976713Y-85926543D01*
X113204800Y-85946498D01*
X113432887Y-85926543D01*
X113438200Y-85925119D01*
X113438202Y-85925119D01*
X113648733Y-85868707D01*
X113648735Y-85868706D01*
X113654043Y-85867284D01*
X113672261Y-85858789D01*
X113856562Y-85772849D01*
X113856567Y-85772846D01*
X113861549Y-85770523D01*
X114004022Y-85670762D01*
X114044589Y-85642357D01*
X114044592Y-85642355D01*
X114049100Y-85639198D01*
X114210998Y-85477300D01*
X114342323Y-85289749D01*
X114344646Y-85284767D01*
X114344649Y-85284762D01*
X114436761Y-85087225D01*
X114436761Y-85087224D01*
X114439084Y-85082243D01*
X114456030Y-85019000D01*
X123898002Y-85019000D01*
X123917957Y-85247087D01*
X123977216Y-85468243D01*
X123979539Y-85473224D01*
X123979539Y-85473225D01*
X124071651Y-85670762D01*
X124071654Y-85670767D01*
X124073977Y-85675749D01*
X124205302Y-85863300D01*
X124367200Y-86025198D01*
X124371708Y-86028355D01*
X124371711Y-86028357D01*
X124449889Y-86083098D01*
X124554751Y-86156523D01*
X124559733Y-86158846D01*
X124559738Y-86158849D01*
X124757275Y-86250961D01*
X124762257Y-86253284D01*
X124767565Y-86254706D01*
X124767567Y-86254707D01*
X124978098Y-86311119D01*
X124978100Y-86311119D01*
X124983413Y-86312543D01*
X125211500Y-86332498D01*
X125439587Y-86312543D01*
X125444900Y-86311119D01*
X125444902Y-86311119D01*
X125655433Y-86254707D01*
X125655435Y-86254706D01*
X125660743Y-86253284D01*
X125665725Y-86250961D01*
X125863262Y-86158849D01*
X125863267Y-86158846D01*
X125868249Y-86156523D01*
X125973111Y-86083098D01*
X126051289Y-86028357D01*
X126051292Y-86028355D01*
X126055800Y-86025198D01*
X126217698Y-85863300D01*
X126349023Y-85675749D01*
X126351346Y-85670767D01*
X126351349Y-85670762D01*
X126443461Y-85473225D01*
X126443461Y-85473224D01*
X126445784Y-85468243D01*
X126505043Y-85247087D01*
X126524998Y-85019000D01*
X126505043Y-84790913D01*
X126445784Y-84569757D01*
X126371472Y-84410393D01*
X126351349Y-84367238D01*
X126351346Y-84367233D01*
X126349023Y-84362251D01*
X126217698Y-84174700D01*
X126055800Y-84012802D01*
X126051292Y-84009645D01*
X126051289Y-84009643D01*
X125973111Y-83954902D01*
X125868249Y-83881477D01*
X125863267Y-83879154D01*
X125863262Y-83879151D01*
X125665725Y-83787039D01*
X125665724Y-83787039D01*
X125660743Y-83784716D01*
X125655435Y-83783294D01*
X125655433Y-83783293D01*
X125444902Y-83726881D01*
X125444900Y-83726881D01*
X125439587Y-83725457D01*
X125211500Y-83705502D01*
X124983413Y-83725457D01*
X124978100Y-83726881D01*
X124978098Y-83726881D01*
X124767567Y-83783293D01*
X124767565Y-83783294D01*
X124762257Y-83784716D01*
X124757276Y-83787039D01*
X124757275Y-83787039D01*
X124559738Y-83879151D01*
X124559733Y-83879154D01*
X124554751Y-83881477D01*
X124449889Y-83954902D01*
X124371711Y-84009643D01*
X124371708Y-84009645D01*
X124367200Y-84012802D01*
X124205302Y-84174700D01*
X124073977Y-84362251D01*
X124071654Y-84367233D01*
X124071651Y-84367238D01*
X124051528Y-84410393D01*
X123977216Y-84569757D01*
X123917957Y-84790913D01*
X123898002Y-85019000D01*
X114456030Y-85019000D01*
X114498343Y-84861087D01*
X114518298Y-84633000D01*
X114498343Y-84404913D01*
X114439084Y-84183757D01*
X114434861Y-84174700D01*
X114344649Y-83981238D01*
X114344646Y-83981233D01*
X114342323Y-83976251D01*
X114210998Y-83788700D01*
X114049100Y-83626802D01*
X114044592Y-83623645D01*
X114044589Y-83623643D01*
X113885786Y-83512448D01*
X113861549Y-83495477D01*
X113856567Y-83493154D01*
X113856562Y-83493151D01*
X113659025Y-83401039D01*
X113659024Y-83401039D01*
X113654043Y-83398716D01*
X113648735Y-83397294D01*
X113648733Y-83397293D01*
X113438202Y-83340881D01*
X113438200Y-83340881D01*
X113432887Y-83339457D01*
X113204800Y-83319502D01*
X112976713Y-83339457D01*
X112971400Y-83340881D01*
X112971398Y-83340881D01*
X112760867Y-83397293D01*
X112760865Y-83397294D01*
X112755557Y-83398716D01*
X112750576Y-83401039D01*
X112750575Y-83401039D01*
X112553038Y-83493151D01*
X112553033Y-83493154D01*
X112548051Y-83495477D01*
X112543544Y-83498633D01*
X112543542Y-83498634D01*
X112377366Y-83614992D01*
X112310092Y-83637680D01*
X112241231Y-83620395D01*
X112192647Y-83568625D01*
X112179097Y-83512448D01*
X112160718Y-80050000D01*
X124240135Y-80050000D01*
X124258765Y-80286711D01*
X124314195Y-80517594D01*
X124316088Y-80522165D01*
X124316089Y-80522167D01*
X124401615Y-80728645D01*
X124405060Y-80736963D01*
X124407646Y-80741183D01*
X124526541Y-80935202D01*
X124526545Y-80935208D01*
X124529124Y-80939416D01*
X124683331Y-81119969D01*
X124863884Y-81274176D01*
X124868092Y-81276755D01*
X124868098Y-81276759D01*
X125062117Y-81395654D01*
X125066337Y-81398240D01*
X125070907Y-81400133D01*
X125070911Y-81400135D01*
X125281133Y-81487211D01*
X125285706Y-81489105D01*
X125365909Y-81508360D01*
X125511776Y-81543380D01*
X125511782Y-81543381D01*
X125516589Y-81544535D01*
X125753300Y-81563165D01*
X125990011Y-81544535D01*
X125994818Y-81543381D01*
X125994824Y-81543380D01*
X126140691Y-81508360D01*
X126220894Y-81489105D01*
X126225467Y-81487211D01*
X126435689Y-81400135D01*
X126435693Y-81400133D01*
X126440263Y-81398240D01*
X126444483Y-81395654D01*
X126638502Y-81276759D01*
X126638508Y-81276755D01*
X126642716Y-81274176D01*
X126823269Y-81119969D01*
X126977476Y-80939416D01*
X126980055Y-80935208D01*
X126980059Y-80935202D01*
X127098954Y-80741183D01*
X127101540Y-80736963D01*
X127104986Y-80728645D01*
X127190511Y-80522167D01*
X127190512Y-80522165D01*
X127192405Y-80517594D01*
X127247835Y-80286711D01*
X127248754Y-80275034D01*
X127894900Y-80275034D01*
X127901655Y-80337216D01*
X127952785Y-80473605D01*
X128040139Y-80590161D01*
X128156695Y-80677515D01*
X128293084Y-80728645D01*
X128355266Y-80735400D01*
X130026534Y-80735400D01*
X130088716Y-80728645D01*
X130225105Y-80677515D01*
X130341661Y-80590161D01*
X130429015Y-80473605D01*
X130480145Y-80337216D01*
X130486900Y-80275034D01*
X130486900Y-78603766D01*
X130480145Y-78541584D01*
X130429015Y-78405195D01*
X130341661Y-78288639D01*
X130225105Y-78201285D01*
X130088716Y-78150155D01*
X130026534Y-78143400D01*
X128355266Y-78143400D01*
X128293084Y-78150155D01*
X128156695Y-78201285D01*
X128040139Y-78288639D01*
X127952785Y-78405195D01*
X127901655Y-78541584D01*
X127894900Y-78603766D01*
X127894900Y-80275034D01*
X127248754Y-80275034D01*
X127266465Y-80050000D01*
X127247835Y-79813289D01*
X127192405Y-79582406D01*
X127101540Y-79363037D01*
X127098954Y-79358817D01*
X126980059Y-79164798D01*
X126980055Y-79164792D01*
X126977476Y-79160584D01*
X126823269Y-78980031D01*
X126642716Y-78825824D01*
X126638508Y-78823245D01*
X126638502Y-78823241D01*
X126444483Y-78704346D01*
X126440263Y-78701760D01*
X126435693Y-78699867D01*
X126435689Y-78699865D01*
X126225467Y-78612789D01*
X126225465Y-78612788D01*
X126220894Y-78610895D01*
X126140691Y-78591640D01*
X125994824Y-78556620D01*
X125994818Y-78556619D01*
X125990011Y-78555465D01*
X125753300Y-78536835D01*
X125516589Y-78555465D01*
X125511782Y-78556619D01*
X125511776Y-78556620D01*
X125365909Y-78591640D01*
X125285706Y-78610895D01*
X125281135Y-78612788D01*
X125281133Y-78612789D01*
X125070911Y-78699865D01*
X125070907Y-78699867D01*
X125066337Y-78701760D01*
X125062117Y-78704346D01*
X124868098Y-78823241D01*
X124868092Y-78823245D01*
X124863884Y-78825824D01*
X124683331Y-78980031D01*
X124529124Y-79160584D01*
X124526545Y-79164792D01*
X124526541Y-79164798D01*
X124407646Y-79358817D01*
X124405060Y-79363037D01*
X124314195Y-79582406D01*
X124258765Y-79813289D01*
X124240135Y-80050000D01*
X112160718Y-80050000D01*
X112158212Y-79577833D01*
X112149120Y-77864874D01*
X112168760Y-77796649D01*
X112222168Y-77749872D01*
X112275097Y-77738206D01*
X123525746Y-77736312D01*
X130614011Y-77735118D01*
X130682134Y-77755109D01*
G37*
%TD.AperFunction*%
%TD*%
M02*
